<svg width="148" height="148" viewBox="0 0 148 148" fill="none" xmlns="http://www.w3.org/2000/svg">
<path d="M19.8651 110.672L19.7211 110.848C19.6145 110.955 19.4331 111.093 19.1771 111.264C18.9318 111.424 18.6331 111.589 18.2811 111.76C17.9398 111.92 17.4811 112.053 16.9051 112.16C16.3291 112.277 15.7105 112.336 15.0491 112.336C13.6518 112.336 12.4571 112.107 11.4651 111.648C10.4731 111.179 9.69446 110.501 9.12912 109.616C8.57446 108.72 8.17446 107.712 7.92912 106.592C7.68379 105.461 7.56113 104.155 7.56113 102.672C7.56113 101.093 7.68379 99.7333 7.92912 98.592C8.17446 97.44 8.57979 96.432 9.14512 95.568C9.72112 94.6933 10.5105 94.0373 11.5131 93.6C12.5158 93.1627 13.7371 92.944 15.1771 92.944C15.8385 92.944 16.4571 93.0027 17.0331 93.12C17.6198 93.2373 18.0785 93.3707 18.4091 93.52C18.7505 93.6693 19.0545 93.84 19.3211 94.032C19.5985 94.224 19.7691 94.3573 19.8331 94.432C19.9078 94.5067 19.9611 94.5653 19.9931 94.608L19.7531 98.288H17.3211L16.4891 96.384C16.2971 96.3307 16.1371 96.304 16.0091 96.304C15.2945 96.304 14.7451 96.4693 14.3611 96.8C13.9771 97.12 13.6838 97.7547 13.4811 98.704C13.2785 99.6427 13.1771 100.997 13.1771 102.768C13.1771 103.824 13.2411 104.747 13.3691 105.536C13.5078 106.325 13.6731 106.933 13.8651 107.36C14.0571 107.776 14.2865 108.112 14.5531 108.368C14.8198 108.624 15.0598 108.789 15.2731 108.864C15.4865 108.928 15.7158 108.96 15.9611 108.96C16.5051 108.96 17.0758 108.896 17.6731 108.768C18.2705 108.629 18.7611 108.421 19.1451 108.144L19.8651 110.672ZM28.5548 109.648C29.1734 109.648 29.6161 109.435 29.8827 109.008C30.2774 108.357 30.4747 106.752 30.4747 104.192V100.176C30.4747 98.6507 30.3254 97.5147 30.0268 96.768C29.7281 96.0213 29.2374 95.648 28.5548 95.648C28.0748 95.648 27.7014 95.8187 27.4347 96.16C26.9547 96.7787 26.7147 98.304 26.7147 100.736V104.912C26.7147 106.683 26.8481 107.915 27.1148 108.608C27.3921 109.301 27.8721 109.648 28.5548 109.648ZM30.2028 117.184C28.8161 117.184 27.8294 116.8 27.2428 116.032C26.6561 115.275 26.3361 113.995 26.2827 112.192C25.6321 112.085 25.0454 111.915 24.5227 111.68C24.0001 111.445 23.5521 111.173 23.1788 110.864C22.8054 110.544 22.4801 110.16 22.2027 109.712C21.9254 109.264 21.6961 108.795 21.5147 108.304C21.3441 107.813 21.2054 107.259 21.0987 106.64C20.9921 106.011 20.9174 105.387 20.8747 104.768C20.8427 104.149 20.8268 103.456 20.8268 102.688C20.8268 101.408 20.8907 100.293 21.0187 99.344C21.1574 98.3947 21.4081 97.504 21.7707 96.672C22.1334 95.8293 22.6134 95.1467 23.2108 94.624C23.8187 94.1013 24.5974 93.6907 25.5468 93.392C26.5068 93.0933 27.6374 92.944 28.9387 92.944C29.8347 92.944 30.6401 93.0293 31.3547 93.2C32.0694 93.36 32.6827 93.584 33.1947 93.872C33.7067 94.16 34.1494 94.5333 34.5228 94.992C34.9068 95.4507 35.2108 95.9413 35.4348 96.464C35.6694 96.976 35.8561 97.5787 35.9947 98.272C36.1334 98.9653 36.2294 99.6533 36.2828 100.336C36.3361 101.019 36.3628 101.792 36.3628 102.656C36.3628 103.68 36.3201 104.597 36.2347 105.408C36.1494 106.208 35.9948 106.976 35.7708 107.712C35.5468 108.437 35.2534 109.067 34.8907 109.6C34.5388 110.133 34.0801 110.603 33.5148 111.008C32.9601 111.403 32.3041 111.712 31.5468 111.936V112.016C31.5468 112.869 31.6694 113.435 31.9147 113.712C32.1707 113.989 32.5601 114.128 33.0828 114.128C33.2321 114.128 33.3707 114.112 33.4988 114.08C33.6374 114.059 33.7601 114.027 33.8667 113.984C33.9734 113.941 34.0748 113.888 34.1708 113.824V116C34.1601 116.011 34.1441 116.027 34.1227 116.048C33.2481 116.805 31.9414 117.184 30.2028 117.184ZM45.2731 112.336C44.1745 112.336 43.1985 112.229 42.3451 112.016C41.5025 111.803 40.8091 111.515 40.2651 111.152C39.7318 110.789 39.2891 110.341 38.9371 109.808C38.5958 109.264 38.3558 108.693 38.2171 108.096C38.0785 107.499 38.0091 106.837 38.0091 106.112V93.248H43.7051V105.392C43.7051 106.747 43.8438 107.68 44.1211 108.192C44.4091 108.693 44.8251 108.944 45.3691 108.944C45.6678 108.944 45.9291 108.896 46.1531 108.8C46.3771 108.693 46.5851 108.517 46.7771 108.272C46.9691 108.016 47.1131 107.653 47.2091 107.184C47.3158 106.704 47.3691 106.123 47.3691 105.44V93.248H52.4251V106.208C52.4251 106.923 52.3611 107.568 52.2331 108.144C52.1158 108.72 51.8918 109.28 51.5611 109.824C51.2411 110.357 50.8145 110.805 50.2811 111.168C49.7585 111.52 49.0705 111.803 48.2171 112.016C47.3745 112.229 46.3931 112.336 45.2731 112.336ZM59.868 112H54.572V93.248H56.684C57.2493 93.248 58.1027 93.2267 59.244 93.184C60.3853 93.1307 61.324 93.104 62.06 93.104C64.1293 93.104 65.6973 93.6533 66.764 94.752C67.8307 95.8507 68.364 97.4987 68.364 99.696C68.364 101.019 68.188 102.224 67.836 103.312C67.4947 104.389 67.0307 105.275 66.444 105.968C65.8573 106.661 65.1907 107.195 64.444 107.568C63.6973 107.941 62.908 108.128 62.076 108.128C61.9693 108.128 61.8573 108.128 61.74 108.128C61.6333 108.128 61.532 108.128 61.436 108.128C61.3507 108.117 61.244 108.112 61.116 108.112C60.9987 108.101 60.9027 108.096 60.828 108.096C60.764 108.085 60.668 108.08 60.54 108.08C60.4227 108.069 60.3427 108.064 60.3 108.064C60.2573 108.064 60.1773 108.059 60.06 108.048C59.9427 108.037 59.8787 108.032 59.868 108.032V112ZM63.116 98.992C63.116 98.2027 62.9027 97.5627 62.476 97.072C62.0493 96.5813 61.436 96.336 60.636 96.336H59.868V104.656H60.46C61.3027 104.656 61.9533 104.373 62.412 103.808C62.8813 103.243 63.116 102.427 63.116 101.36V98.992ZM72.548 112V97.488H68.804V93.248H81.7V97.488H77.956V112H72.548Z" fill="#34CAC0"/>
<path d="M97.7899 112H92.4939V93.248H97.7899V100.672H101.902V93.248H107.198V112H101.902V104.352H97.7899V112ZM116.57 112.336C115.471 112.336 114.495 112.229 113.642 112.016C112.799 111.803 112.106 111.515 111.562 111.152C111.029 110.789 110.586 110.341 110.234 109.808C109.893 109.264 109.653 108.693 109.514 108.096C109.375 107.499 109.306 106.837 109.306 106.112V93.248H115.002V105.392C115.002 106.747 115.141 107.68 115.418 108.192C115.706 108.693 116.122 108.944 116.666 108.944C116.965 108.944 117.226 108.896 117.45 108.8C117.674 108.693 117.882 108.517 118.074 108.272C118.266 108.016 118.41 107.653 118.506 107.184C118.613 106.704 118.666 106.123 118.666 105.44V93.248H123.722V106.208C123.722 106.923 123.658 107.568 123.53 108.144C123.413 108.72 123.189 109.28 122.858 109.824C122.538 110.357 122.111 110.805 121.578 111.168C121.055 111.52 120.367 111.803 119.514 112.016C118.671 112.229 117.69 112.336 116.57 112.336ZM132.397 108.864C133.154 108.864 133.709 108.651 134.061 108.224C134.413 107.797 134.589 107.291 134.589 106.704V105.584C134.589 104.891 134.365 104.4 133.917 104.112C133.469 103.813 132.962 103.664 132.397 103.664H131.149V108.864H132.397ZM134.365 98.048C134.365 97.408 134.189 96.9653 133.837 96.72C133.485 96.464 132.978 96.336 132.317 96.336H131.149V100.96H132.445C133.064 100.96 133.538 100.72 133.869 100.24C134.2 99.7493 134.365 99.152 134.365 98.448V98.048ZM133.485 112.144C132.653 112.144 131.576 112.123 130.253 112.08C128.93 112.037 127.981 112.011 127.405 112H125.869V93.248H128.637C129.309 93.248 130.077 93.2267 130.941 93.184C131.805 93.1307 132.429 93.104 132.813 93.104C134.061 93.104 135.112 93.2053 135.965 93.408C136.829 93.6107 137.506 93.9147 137.997 94.32C138.488 94.7253 138.834 95.1947 139.037 95.728C139.25 96.2613 139.357 96.896 139.357 97.632C139.357 98.7627 139.096 99.7333 138.573 100.544C138.05 101.355 137.293 101.861 136.301 102.064C138.818 102.288 140.077 103.765 140.077 106.496C140.077 107.317 139.954 108.064 139.709 108.736C139.464 109.397 139.085 109.989 138.573 110.512C138.072 111.024 137.389 111.424 136.525 111.712C135.661 112 134.648 112.144 133.485 112.144Z" fill="#39DBD0"/>
<path fill-rule="evenodd" clip-rule="evenodd" d="M76 54C73.7892 54 71.9055 55.5214 71.0251 57.5493C67.3332 66.0527 58.8611 72 49 72C35.7452 72 25 61.2548 25 48C25 35.4321 34.6603 25.1205 46.9606 24.0854C46.9828 24.0836 47 24.065 47 24.0428V24.0428C47 24.0191 47.0191 24 47.0428 24H49H103C116.255 24 127 34.7452 127 48C127 61.2548 116.255 72 103 72C93.1389 72 84.6668 66.0527 80.9749 57.5493C80.0945 55.5214 78.2108 54 76 54V54Z" fill="#28D1C6"/>
<circle cx="103" cy="40" r="4" fill="white"/>
<circle cx="95" cy="48" r="4" fill="white"/>
<circle cx="111" cy="48" r="4" fill="white"/>
<circle cx="103" cy="56" r="4" fill="white"/>
<path fill-rule="evenodd" clip-rule="evenodd" d="M51.4206 53.9735C51.4206 53.9823 51.4206 53.9912 51.4206 54H51.4205H45.3968H45.3967C45.3967 53.9908 45.3967 53.9816 45.3968 53.9724C45.3884 52.141 44.5451 50.239 42.9697 48.9445C41.3864 47.6434 39.2391 46.9125 37 46.9125V42C40.8246 42 44.4925 43.2485 47.1969 45.4708C47.6649 45.8553 48.0974 46.2681 48.4927 46.7041C48.897 46.2681 49.335 45.8553 49.803 45.4708C52.5074 43.2485 56.1753 42 59.9999 42V46.9125C57.7608 46.9125 55.6135 47.6434 54.0302 48.9445C52.4545 50.2392 51.4304 52.1417 51.4206 53.9735Z" fill="white"/>
</svg>
